<svg id="Flat" viewBox="0 0 64 64" xmlns="http://www.w3.org/2000/svg"><path d="m3 8h42l-3.672 29.372a3 3 0 0 1 -2.976 2.628h-28.704a3 3 0 0 1 -2.976-2.628z" fill="#dfae82"/><path d="m41.328 37.372 3.672-29.372h-39l3.672 29.372a3 3 0 0 0 2.976 2.628h25.7a3 3 0 0 0 2.98-2.628z" fill="#d8a070"/><rect fill="#f5d6b6" height="4" rx="2" width="46" x="1" y="4"/><path d="m47 6h-41a2 2 0 0 0 -2 2h41a2 2 0 0 0 2-2z" fill="#eec9a4"/><path d="m3 18h42l-3.672 29.372a3 3 0 0 1 -2.976 2.628h-28.704a3 3 0 0 1 -2.976-2.628z" fill="#dfae82"/><path d="m41.328 47.372 3.672-29.372h-39l3.672 29.372a3 3 0 0 0 2.976 2.628h25.7a3 3 0 0 0 2.98-2.628z" fill="#d8a070"/><rect fill="#f5d6b6" height="4" rx="2" width="46" x="1" y="14"/><g fill="#eec9a4"><path d="m47 16h-41a2 2 0 0 0 -2 2h41a2 2 0 0 0 2-2z"/><path d="m6.25 34 .422 3.372a3 3 0 0 0 2.976 2.628h28.7a3 3 0 0 0 2.976-2.628l.426-3.372z"/><path d="m6.25 44 .422 3.372a3 3 0 0 0 2.976 2.628h28.7a3 3 0 0 0 2.976-2.628l.426-3.372z"/></g><path d="m3 28h42l-3.672 29.372a3 3 0 0 1 -2.976 2.628h-28.704a3 3 0 0 1 -2.976-2.628z" fill="#dfae82"/><path d="m41.328 57.372 3.672-29.372h-39l3.672 29.372a3 3 0 0 0 2.976 2.628h25.7a3 3 0 0 0 2.98-2.628z" fill="#d8a070"/><rect fill="#f5d6b6" height="4" rx="2" width="46" x="1" y="24"/><path d="m47 26h-41a2 2 0 0 0 -2 2h41a2 2 0 0 0 2-2z" fill="#eec9a4"/><path d="m6.25 54 .422 3.372a3 3 0 0 0 2.976 2.628h28.7a3 3 0 0 0 2.976-2.628l.426-3.372z" fill="#f5d6b6"/><path d="m41.328 57.372.422-3.372h-32.5l.422 3.372a3 3 0 0 0 2.976 2.628h25.7a3 3 0 0 0 2.98-2.628z" fill="#eec9a4"/><circle cx="51" cy="48" fill="#e2f4fb" r="12"/><path d="m53 38a12 12 0 0 0 -9.426 19.426 12 12 0 0 0 16.852-16.852 11.946 11.946 0 0 0 -7.426-2.574z" fill="#f2fcff"/><path d="m51 60.75a12.75 12.75 0 1 1 12.75-12.75 12.765 12.765 0 0 1 -12.75 12.75zm0-24a11.25 11.25 0 1 0 11.25 11.25 11.263 11.263 0 0 0 -11.25-11.25z" fill="#6ec864"/><path d="m58 44h1a0 0 0 0 1 0 0v1a7 7 0 0 1 -7 7h-1a0 0 0 0 1 0 0v-1a7 7 0 0 1 7-7z" fill="#83dc77"/><path d="m43 44h1a7 7 0 0 1 7 7v1a0 0 0 0 1 0 0h-1a7 7 0 0 1 -7-7v-1a0 0 0 0 1 0 0z" fill="#83dc77" transform="matrix(-1 0 0 -1 94 96)"/><path d="m55.53 47.47a.749.749 0 0 0 -1.06 0l-3.47 3.469-3.47-3.469a.75.75 0 0 0 -1.06 1.06l3.78 3.781v3.689a.75.75 0 0 0 1.5 0v-3.689l3.78-3.781a.749.749 0 0 0 0-1.06z" fill="#92ed89"/></svg>